<?xml version="1.0" encoding="UTF-8"?>
<svg width="72" height="72" viewBox="0 0 72 72" fill="none" xmlns="http://www.w3.org/2000/svg">
    <path d="M36 8C20.536 8 8 20.536 8 36s12.536 28 28 28 28-12.536 28-28S51.464 8 36 8zm0 50.4c-12.376 0-22.4-10.024-22.4-22.4S23.624 13.6 36 13.6 58.4 23.624 58.4 36 48.376 58.4 36 58.4z" fill="#1867C0"/>
    <path d="M36 19.2c-9.28 0-16.8 7.52-16.8 16.8S26.72 52.8 36 52.8 52.8 45.28 52.8 36 45.28 19.2 36 19.2zm0 28c-6.184 0-11.2-5.016-11.2-11.2S29.816 24.8 36 24.8 47.2 29.816 47.2 36 42.184 47.2 36 47.2z" fill="#1867C0" opacity="0.7"/>
    <circle cx="36" cy="36" r="5.6" fill="#1867C0"/>
</svg>
